<svg viewBox="0 0 431 89.5" xmlns="http://www.w3.org/2000/svg"><g fill="#373737"><path d="M217 29.7a21.3 21.3 0 0 1-15.2 36.6c-3.8 0-7.2-1.3-10.2-4l-.5-.4V86l-10.9 3.4V24.3h10.9v3.2l.5-.5c3.2-3.1 6.9-3.6 10.2-3.6 5.7.1 11.1 2.3 15.2 6.3zm-4.6 15.2c0-5.9-4.9-10.9-10.6-10.9s-10.6 5-10.6 10.9c0 5.8 4.9 10.9 10.6 10.9s10.6-5 10.6-10.9zm21.1 15.2a21.3 21.3 0 0 1 15.2-36.6c3.8 0 7.2 1.3 10.2 4l.5.4v-3.6h10.9v41.2h-10.9v-3.2l-.5.5a13.7 13.7 0 0 1-10.2 3.6 21.8 21.8 0 0 1-15.2-6.3zm4.6-15.2a11 11 0 0 0 10.6 10.9c5.8 0 10.6-5 10.6-10.9A11 11 0 0 0 248.7 34a11 11 0 0 0-10.6 10.9z"/><path d="M233.5 60.1a21.3 21.3 0 0 1 15.2-36.6c3.8 0 7.2 1.3 10.2 4l.5.4v-3.6h10.9v41.2h-10.9v-3.2l-.5.5a13.7 13.7 0 0 1-10.2 3.6 21.8 21.8 0 0 1-15.2-6.3zm4.6-15.2a11 11 0 0 0 10.6 10.9c5.8 0 10.6-5 10.6-10.9A11 11 0 0 0 248.7 34a11 11 0 0 0-10.6 10.9zm43 44.6l9.8-23.8-16.5-41.3h12.1L296.8 50l10.4-25.6h12l-26.3 65.2h-11.8z"/><path d="M281.1 89.5l9.8-23.8-16.5-41.3h12.1L296.8 50l10.4-25.6h12l-26.3 65.2h-11.8zm-260-23.6a20.9 20.9 0 0 1-21-21c0-5.6 2.1-10.9 6-14.9 4-3.9 9.3-6 14.9-6 5.7 0 10.5 3 13.5 5.5l.9.7v-5.4h6.7V65h-6.7v-5.4l-.9.7a20.7 20.7 0 0 1-13.4 5.6zm0-35.5a14.5 14.5 0 0 0 0 29 14.5 14.5 0 0 0 0-29zM54.2 65V31.2h-6.1v-6.3h6.1V13A13 13 0 0 1 67.3 0h8.4L74 6.3h-6.5a7 7 0 0 0-6.7 6.8v11.7h12.7v6.3H60.9V65zm44.6 0a13 13 0 0 1-13.1-13.1V31.2h-6.1v-6.3h6.1V0h6.7v24.8H105v6.3H92.3v20.5c0 3.7 3.2 7 6.7 7h6.5l1.7 6.3h-8.4zm28.7.7a18 18 0 0 1-13.5-6.1 20.5 20.5 0 0 1-5.4-12.6l-.1-1.9a21 21 0 0 1 5.5-14.4 18.5 18.5 0 0 1 27.3 0c2.6 2.9 4.3 6.2 5 9.7.5 3.1.5 5 .5 5.9H115v.7c.9 7.1 6.3 12.5 12.5 12.6 3.8-.2 7.6-1.7 10.2-4.2l5.6 3.3a23.2 23.2 0 0 1-4.9 4 24.6 24.6 0 0 1-10.9 3zm0-35c-5.2 0-10 3.7-11.9 9.3l-.1.1-.4.8h24.8l-.5-.9a12.8 12.8 0 0 0-11.9-9.3zM153.2 65V24.8h6.7v5.1l.9-1c2.4-2.6 9.3-4.7 14-4.9l-1.6 6.7c-7.3.2-13.3 5.9-13.3 12.9V65z"/></g><path d="M376.8 35.7l11.7-6.8-2.2-3.9c-1.2-2.3-.8-3.2 1.8-3.2h22.5c2.2 0 2.8 1 1.6 2.9L401 44.2c-1.2 2.1-2.3 2.1-3.5 0l-2.3-3.9-11.7 6.8c.2.6.5 1 .8 1.4l7.2 12.4c3.5 5.9 10.9 6.2 15.2.8l1.3-1.9L429.2 23c.7-1.2 1.4-2.6 1.7-4a8.9 8.9 0 0 0-8.6-10.8h-45.5a9 9 0 0 0-8 13.1c1 2 2.2 3.9 3.3 5.8 1.9 3.7 2.4 4.6 4.7 8.6z" fill="#2a78ac"/><path d="M343.1 73.6V60.1h-4.4c-2.6 0-3.1-.9-1.8-3.1l11.2-19.3c1.1-1.9 2.1-2.1 3.3 0 3.7 6.5 7.5 12.9 11.1 19.4 1.2 2.1.6 3-1.7 3h-4.5v13.5h15.8c6.8-.1 10.8-6.3 8.2-12.6l-1-2-21-36.5c-.7-1.2-1.6-2.5-2.6-3.4a8.8 8.8 0 0 0-13.6 2c-7.6 13-15.2 26-22.6 39.1-3.4 6 .5 13 7.2 13.4h16.4z" fill="#124678"/></svg>