<?xml version="1.0" encoding="UTF-8"?>
<svg width="24px" height="24px" viewBox="0 0 24 24" version="1.1" xmlns="http://www.w3.org/2000/svg" xmlns:xlink="http://www.w3.org/1999/xlink">
    <!-- Generator: Sketch 51.3 (57544) - http://www.bohemiancoding.com/sketch -->
    <title>Group</title>
    <desc>Created with Sketch.</desc>
    <defs></defs>
    <g id="Page-1" stroke="none" stroke-width="1" fill="none" fill-rule="evenodd">
        <g id="Group" fill="currentColor" fill-rule="nonzero">
            <path d="M21.9483817,16.9878681 C24.3662109,12.5916628 23.5772879,7.04660143 20.0269252,3.49623866 C15.6010045,-0.929682086 8.40025114,-0.928845086 3.9751674,3.49623866 C-0.4503348,7.92174086 -0.4503348,15.1229127 3.9751674,19.548415 C7.40248329,22.9765679 12.6901507,23.8303626 17.0064174,21.7092688 C17.8455636,22.4090456 19.6364397,23.82827 21.9860491,23.82827 C22.2957589,23.82827 22.5816127,23.6608593 22.7335379,23.3909095 C22.8850446,23.1205412 22.8791853,22.7894865 22.7176339,22.5249776 C22.6983817,22.4931695 20.8150112,19.2885099 21.9483817,16.9878681 Z M18.0029297,20.3076226 C17.7133092,20.0648771 17.436663,19.8325947 17.0892857,19.8325947 C16.9896764,19.8325947 16.8846261,19.8514285 16.7716239,19.8949552 C16.7004743,19.9221595 16.63351,19.9594083 16.5724051,20.0046093 C12.8504463,22.0110267 8.18261717,21.3313392 5.18722097,18.3363615 C1.430106,14.5792465 1.430106,8.4654072 5.18722097,4.70829223 C8.94559149,0.9515958 15.0581752,0.952432886 18.8148717,4.70829223 C21.8328683,7.72628889 22.5004185,12.4418301 20.4383371,16.1759261 C20.4324777,16.1863893 20.4270369,16.1968525 20.4215961,16.2077342 C19.4422434,18.1702063 19.9524275,20.3963503 20.5090682,21.8503123 C19.3648159,21.4497822 18.4633091,20.6935043 18.0029297,20.3076226 Z" id="Shape"></path>
            <path d="M9.38546314,11.391328 C9.14564726,11.1510937 8.76855463,11.0740847 8.45131131,11.2113615 C8.3399832,11.2540513 8.25418517,11.3143191 8.16838723,11.391328 C8.09137826,11.4771261 8.03111049,11.5625055 7.98842074,11.6742521 C7.945731,11.7767912 7.91978237,11.8885378 7.91978237,11.9998659 C7.91978237,12.2225222 8.01395091,12.4455969 8.16838731,12.6084039 C8.33119423,12.7628403 8.554269,12.8570088 8.77692523,12.8570088 C9,12.8570088 9.22265623,12.7628403 9.38546314,12.6084039 C9.53989954,12.4455969 9.63406809,12.2225222 9.63406809,11.9998659 C9.63406809,11.8885378 9.60853791,11.7767912 9.56542971,11.6742521 C9.52273997,11.5625055 9.46289066,11.477126 9.38546314,11.391328 Z" id="Shape"></path>
            <path d="M11.6739676,11.2113615 C11.5626395,11.2540512 11.468471,11.3143191 11.3914621,11.3913279 C11.3140347,11.477126 11.2541853,11.5625054 11.2110771,11.674252 C11.1683873,11.7767912 11.1428571,11.8885378 11.1428571,11.9998659 C11.1428571,12.2225222 11.2370257,12.4455969 11.3914621,12.6084039 C11.554269,12.7628403 11.7769252,12.8570088 12,12.8570088 C12.2226562,12.8570088 12.445731,12.7628403 12.6085379,12.6084039 C12.7625558,12.4455969 12.8571429,12.2225222 12.8571429,11.9998659 C12.8571429,11.7767912 12.7625558,11.5541349 12.6085379,11.391328 C12.3683036,11.1510936 11.9828404,11.0740847 11.6739676,11.2113615 Z" id="Shape"></path>
            <path d="M14.8970424,11.2113615 C14.7857143,11.2540512 14.6911272,11.3143191 14.6141183,11.3913279 C14.4596819,11.5541349 14.3655134,11.7767911 14.3655134,11.9998659 C14.3655134,12.2225221 14.4596819,12.4455969 14.6141183,12.6084038 C14.6911273,12.6854127 14.7857143,12.7456805 14.8970424,12.7883703 C15,12.8314785 15.1113281,12.8570086 15.2226562,12.8570086 C15.445731,12.8570086 15.6683872,12.7628401 15.8311941,12.6084037 C15.9856305,12.4455968 16.0797991,12.222522 16.0797991,11.9998658 C16.0797991,11.776791 15.9856305,11.5541348 15.8311941,11.3913279 C15.5913783,11.1510936 15.2054967,11.0740847 14.8970424,11.2113615 Z" id="Shape"></path>
        </g>
    </g>
</svg>