<svg width="24" height="24" viewBox="0 0 24 24" fill="none" xmlns="http://www.w3.org/2000/svg">
<path fill-rule="evenodd" clip-rule="evenodd" d="M4.5 23.25C6.57107 23.25 8.25 21.5711 8.25 19.5C8.25 17.4289 6.57107 15.75 4.5 15.75C2.42893 15.75 0.75 17.4289 0.75 19.5C0.75 21.5711 2.42893 23.25 4.5 23.25Z" stroke="currentColor" stroke-width="1.5" stroke-linecap="round" stroke-linejoin="round"/>
<path fill-rule="evenodd" clip-rule="evenodd" d="M4.5 8.25C6.57107 8.25 8.25 6.57107 8.25 4.5C8.25 2.42893 6.57107 0.75 4.5 0.75C2.42893 0.75 0.75 2.42893 0.75 4.5C0.75 6.57107 2.42893 8.25 4.5 8.25Z" stroke="currentColor" stroke-width="1.5" stroke-linecap="round" stroke-linejoin="round"/>
<path d="M12.9961 14.024L2.88208 7.883" stroke="currentColor" stroke-width="1.5" stroke-linecap="round" stroke-linejoin="round"/>
<path d="M23.2501 3.75L2.88208 16.116" stroke="currentColor" stroke-width="1.5" stroke-linecap="round" stroke-linejoin="round"/>
<path d="M23.25 17.25H21.75" stroke="currentColor" stroke-width="1.5" stroke-linecap="round" stroke-linejoin="round"/>
<path d="M18.75 17.25H17.25" stroke="currentColor" stroke-width="1.5" stroke-linecap="round" stroke-linejoin="round"/>
<path d="M14.25 17.25H12.75" stroke="currentColor" stroke-width="1.5" stroke-linecap="round" stroke-linejoin="round"/>
</svg>
