<svg width="24" height="24" viewBox="0 0 24 24" fill="none" xmlns="http://www.w3.org/2000/svg">
<path d="M23.25 13.5V6C23.25 5.17157 22.5784 4.5 21.75 4.5H9.75C8.92157 4.5 8.25 5.17157 8.25 6V12" stroke="currentColor" stroke-width="1.5" stroke-linecap="round" stroke-linejoin="round"/>
<path d="M8.25 12V6H5.25C2.76472 6 0.75 8.01472 0.75 10.5V16.5C0.75 17.3284 1.42157 18 2.25 18H3" stroke="currentColor" stroke-width="1.5" stroke-linecap="round" stroke-linejoin="round"/>
<path d="M0.75 12H3.75C4.57843 12 5.25 11.3284 5.25 10.5V6" stroke="currentColor" stroke-width="1.5" stroke-linecap="round" stroke-linejoin="round"/>
<path fill-rule="evenodd" clip-rule="evenodd" d="M7.5 19.5C8.74264 19.5 9.75 18.4926 9.75 17.25C9.75 16.0074 8.74264 15 7.5 15C6.25736 15 5.25 16.0074 5.25 17.25C5.25 18.4926 6.25736 19.5 7.5 19.5Z" stroke="currentColor" stroke-width="1.5" stroke-linecap="round" stroke-linejoin="round"/>
<path fill-rule="evenodd" clip-rule="evenodd" d="M19.5 19.5C20.7426 19.5 21.75 18.4926 21.75 17.25C21.75 16.0074 20.7426 15 19.5 15C18.2574 15 17.25 16.0074 17.25 17.25C17.25 18.4926 18.2574 19.5 19.5 19.5Z" stroke="currentColor" stroke-width="1.5" stroke-linecap="round" stroke-linejoin="round"/>
<path d="M12 18H15" stroke="currentColor" stroke-width="1.5" stroke-linecap="round" stroke-linejoin="round"/>
</svg>
