<svg width="24" height="24" viewBox="0 0 24 24" fill="none" xmlns="http://www.w3.org/2000/svg">
<path fill-rule="evenodd" clip-rule="evenodd" d="M12 23.25C18.2132 23.25 23.25 18.2132 23.25 12C23.25 5.7868 18.2132 0.75 12 0.75C5.7868 0.75 0.75 5.7868 0.75 12C0.75 18.2132 5.7868 23.25 12 23.25Z" stroke="#46A85C" stroke-width="1.5" stroke-linecap="round" stroke-linejoin="round"/>
<path d="M9.75 14.25C9.75 15.4926 10.7574 16.5 12 16.5C13.2426 16.5 14.25 15.4926 14.25 14.25C14.25 13.0074 13.2426 12 12 12C10.7574 12 9.75 10.9926 9.75 9.75C9.75 8.50736 10.7574 7.5 12 7.5C13.2426 7.5 14.25 8.50736 14.25 9.75" stroke="#46A85C" stroke-width="1.5" stroke-linecap="round" stroke-linejoin="round"/>
<path d="M12 6V7.5" stroke="#46A85C" stroke-width="1.5" stroke-linecap="round" stroke-linejoin="round"/>
<path d="M12 16.5V18" stroke="#46A85C" stroke-width="1.5" stroke-linecap="round" stroke-linejoin="round"/>
</svg>
