<svg xmlns="http://www.w3.org/2000/svg" width="20" height="16" viewBox="0 0 20 16">
    <g fill="currentColor" fill-rule="nonzero">
        <path d="M.625 1.412h18.75c.345 0 .625-.316.625-.706 0-.39-.28-.706-.625-.706H.625C.28 0 0 .316 0 .706c0 .39.28.706.625.706zM19.375 7.059H.625c-.345 0-.625.316-.625.706 0 .39.28.706.625.706h18.75c.345 0 .625-.317.625-.706 0-.39-.28-.706-.625-.706zM19.375 14.118H.625c-.345 0-.625.316-.625.706 0 .39.28.705.625.705h18.75c.345 0 .625-.316.625-.705 0-.39-.28-.706-.625-.706z"/>
    </g>
</svg>
