<?xml version="1.0" encoding="UTF-8"?>
<svg width="28px" height="28px" viewBox="0 0 28 28" version="1.1" xmlns="http://www.w3.org/2000/svg" xmlns:xlink="http://www.w3.org/1999/xlink">
    <!-- Generator: Sketch 47.1 (45422) - http://www.bohemiancoding.com/sketch -->
    <title>pinterest</title>
    <desc>Created with Sketch.</desc>
    <defs></defs>
    <g id="PDP" stroke="none" stroke-width="1" fill="none" fill-rule="evenodd">
        <g id="pinterest" fill="#000000" fill-rule="nonzero">
            <path d="M14,0 C6.3,0 0,6.3 0,14 C0,21.7 6.3,28 14,28 C21.7,28 28,21.7 28,14 C28,6.3 21.7,0 14,0 Z M15.68,20.72 C13.58,20.72 12.46,18.9 12.46,18.9 C12.46,20.44 9.94,25.2 9.24,26.6 C9.24,26.6 9.1,26.74 8.96,26.46 C8.96,25.48 9.24,22.82 10.64,16.52 C10.92,14 10.5,13.16 10.5,12.18 C10.5,9.8 11.76,9.38 12.46,9.38 C13.44,9.38 14.84,9.8 14.84,11.34 C14.84,13.16 13.3,13.72 13.3,13.72 C13.3,13.72 13.16,14.14 13.02,15.54 C12.88,16.8 13.44,18.34 15.54,18.34 C19.04,18.34 19.6,13.58 19.6,12.18 C19.6,10.36 18.2,6.72 14.14,6.72 C8.54,6.72 7.7,11.62 7.7,13.02 C7.7,13.58 7.84,14.56 7.98,14.98 C8.96,15.12 8.96,16.52 8.54,16.94 C7.98,17.36 5.46,17.92 5.46,12.32 C5.46,7 10.22,4.2 14.42,4.2 C18.34,4.2 22.68,7 22.68,12.18 C22.54,17.08 19.18,20.72 15.68,20.72 Z"></path>
        </g>
    </g>
</svg>