<?xml version="1.0" encoding="UTF-8"?>
<svg width="134px" height="25px" viewBox="0 0 134 25" version="1.1" xmlns="http://www.w3.org/2000/svg" xmlns:xlink="http://www.w3.org/1999/xlink">
    <!-- Generator: Sketch 52.5 (67469) - http://www.bohemiancoding.com/sketch -->
    <title>black@1x</title>
    <desc>Created with Sketch.</desc>
    <g id="Page-1" stroke="none" stroke-width="1" fill="none" fill-rule="evenodd">
        <g id="black" fill="#000000">
            <path d="M22.6372658,18.5425994 L20.4690006,15.7815083 C20.3647322,15.6487319 20.2052608,15.5711975 20.0364369,15.5711975 L9.08249826,15.5711975 C6.09386508,15.2668355 3.84022566,12.7983859 3.84022566,9.82929805 C3.84022566,6.64626599 6.4662579,4.05651702 9.69381301,4.05651702 C9.83454767,4.05651702 9.97471907,4.06148414 10.1140966,4.07133002 C11.4217292,4.16370351 12.6594858,4.68550958 13.6369288,5.56377675 C14.7162955,6.53372631 15.1098882,7.8539148 15.2457694,9.28144655 L15.2504393,9.37854543 L15.25059,12.4900938 C15.2506025,12.7938416 15.4968422,13.0400712 15.80059,13.0400712 L18.6927718,13.0400375 C18.9964973,13.0400375 19.2427155,12.7938193 19.2427155,12.4900938 C19.2427155,12.4898365 19.2427153,12.4895792 19.2427149,12.4893218 C19.2397643,10.3874145 19.2368991,9.31495536 19.2341194,9.27194452 C18.9290646,4.22384185 14.7086126,0.27173913 9.62572177,0.27173913 C4.31806953,0.27173913 0,4.56947825 0,9.85201384 C0,14.82024 3.74396393,18.9203666 8.70874963,19.3892325 C8.73948108,19.3919049 8.89600056,19.4006646 9.60869896,19.4313977 L14.4731555,19.4322885 L15.2519458,19.432437 L15.2519458,20.4715732 L15.2519458,21.6508644 L15.2520559,22.4401612 C15.2520812,22.6220601 15.3420397,22.7921815 15.4923612,22.8946053 L18.3909509,24.8696031 C18.6419759,25.0406428 18.9841268,24.9758019 19.1551665,24.7247769 C19.2174097,24.6334262 19.2506823,24.5254397 19.2506456,24.4148994 L19.2493345,20.4718702 L19.2490332,19.4322885 L20.3038449,19.4322885 L22.2047022,19.4322885 C22.5084588,19.4322885 22.7547022,19.1860452 22.7547022,18.8822885 C22.7547022,18.7591025 22.7133476,18.6394826 22.6372658,18.5425994 Z" id="Fill-1-Copy"></path>
            <path d="M24.8148148,12.3369565 C24.8148148,16.4673913 28.3164609,19.5652174 32.6452675,19.5652174 C37.0016461,19.5652174 40.5308642,16.4673913 40.5308642,12.3369565 L40.5308642,0.788043478 C40.5308642,0.516304348 40.282716,0.27173913 40.0069959,0.27173913 L36.6156379,0.27173913 C36.3123457,0.27173913 36.0917695,0.516304348 36.0917695,0.788043478 L36.0917695,12.1195652 C36.0917695,14.1032609 34.6304527,15.2173913 32.6452675,15.2173913 C30.6876543,15.2173913 29.2539095,14.1032609 29.2539095,12.1195652 L29.2539095,0.788043478 C29.2539095,0.516304348 29.0333333,0.27173913 28.7300412,0.27173913 L25.3386831,0.27173913 C25.062963,0.27173913 24.8148148,0.516304348 24.8148148,0.788043478 L24.8148148,12.3369565 Z M43.48107,19.2934783 C43.0674897,19.2934783 42.8469136,18.9402174 43.0123457,18.5869565 L51.6423868,0.298913043 C51.7251029,0.135869565 51.918107,0 52.1111111,0 L52.3868313,0 C52.5798354,0 52.7728395,0.135869565 52.8555556,0.298913043 L61.4855967,18.5869565 C61.6510288,18.9402174 61.4304527,19.2934783 61.0168724,19.2934783 L57.9563786,19.2934783 C57.4600823,19.2934783 57.2395062,19.1304348 56.991358,18.6141304 L55.9987654,16.4673913 L48.499177,16.4673913 L47.5065844,18.6413043 C47.3687243,18.9673913 47.0654321,19.2934783 46.5139918,19.2934783 L43.48107,19.2934783 Z M50.1534979,12.7717391 L54.3444444,12.7717391 L52.2489712,8.28804348 L52.2213992,8.28804348 L50.1534979,12.7717391 Z M64.7666667,18.7771739 L64.7666667,0.788043478 C64.7666667,0.516304348 64.9872428,0.27173913 65.262963,0.27173913 L71.990535,0.27173913 C77.3119342,0.27173913 81.6683128,4.53804348 81.6683128,9.75543478 C81.6683128,15.0271739 77.3119342,19.2934783 71.990535,19.2934783 L65.262963,19.2934783 C64.9872428,19.2934783 64.7666667,19.048913 64.7666667,18.7771739 Z M69.0679012,15.2717391 L71.962963,15.2717391 C75.0786008,15.2717391 77.091358,12.8532609 77.091358,9.75543478 C77.091358,6.68478261 75.0786008,4.26630435 71.962963,4.26630435 L69.0679012,4.26630435 L69.0679012,15.2717391 Z M86.0522634,18.7771739 L86.0522634,0.788043478 C86.0522634,0.516304348 86.2728395,0.27173913 86.5761317,0.27173913 L93.2209877,0.27173913 C96.8604938,0.27173913 99.3971193,2.98913043 99.3971193,6.27717391 C99.3971193,9.64673913 96.8604938,12.3913043 93.2485597,12.3913043 L90.3534979,12.3913043 L90.3534979,18.7771739 C90.3534979,19.048913 90.1053498,19.2934783 89.8296296,19.2934783 L86.5761317,19.2934783 C86.2728395,19.2934783 86.0522634,19.048913 86.0522634,18.7771739 Z M90.3534979,8.42391304 L93.1382716,8.42391304 C94.3238683,8.42391304 95.1510288,7.5 95.1510288,6.27717391 C95.1510288,5.13586957 94.3238683,4.26630435 93.1382716,4.26630435 L90.3534979,4.26630435 L90.3534979,8.42391304 Z M99.8382716,19.2934783 C99.4246914,19.2934783 99.2041152,18.9402174 99.3695473,18.5869565 L107.999588,0.298913043 C108.082305,0.135869565 108.275309,0 108.468313,0 L108.744033,0 C108.937037,0 109.130041,0.135869565 109.212757,0.298913043 L117.842798,18.5869565 C118.00823,18.9402174 117.787654,19.2934783 117.374074,19.2934783 L114.31358,19.2934783 C113.817284,19.2934783 113.596708,19.1304348 113.34856,18.6141304 L112.355967,16.4673913 L104.856379,16.4673913 L103.863786,18.6413043 C103.725926,18.9673913 103.422634,19.2934783 102.871193,19.2934783 L99.8382716,19.2934783 Z M106.5107,12.7717391 L110.701646,12.7717391 L108.606173,8.28804348 L108.578601,8.28804348 L106.5107,12.7717391 Z M123.136626,18.7771739 L123.136626,10.1358696 L117.04321,1.05978261 C116.822634,0.706521739 117.04321,0.27173913 117.484362,0.27173913 L121.068724,0.27173913 C121.2893,0.27173913 121.42716,0.407608696 121.509877,0.516304348 L125.342387,6.08695652 L129.174897,0.516304348 C129.257613,0.407608696 129.367901,0.27173913 129.616049,0.27173913 L133.200412,0.27173913 C133.641564,0.27173913 133.86214,0.706521739 133.641564,1.05978261 L127.465432,10.1086957 L127.465432,18.7771739 C127.465432,19.048913 127.217284,19.2934783 126.941564,19.2934783 L123.660494,19.2934783 C123.357202,19.2934783 123.136626,19.048913 123.136626,18.7771739 Z" id="QUADPAY-Copy-2"></path>
        </g>
    </g>
</svg>
