<svg width="25" height="24" viewBox="0 0 25 24" fill="none" xmlns="http://www.w3.org/2000/svg">
<path fill-rule="evenodd" clip-rule="evenodd" d="M18.25 23.25C21.5637 23.25 24.25 20.5637 24.25 17.25C24.25 13.9363 21.5637 11.25 18.25 11.25C14.9363 11.25 12.25 13.9363 12.25 17.25C12.25 20.5637 14.9363 23.25 18.25 23.25Z" stroke="currentColor" stroke-width="1.5" stroke-linecap="round" stroke-linejoin="round"/>
<path d="M20.5 14.999L16 19.499" stroke="currentColor" stroke-width="1.5" stroke-linecap="round" stroke-linejoin="round"/>
<path d="M16 14.999L20.5 19.499" stroke="currentColor" stroke-width="1.5" stroke-linecap="round" stroke-linejoin="round"/>
<path d="M8.87489 17.25H5.31389C4.64524 17.2378 4.07269 16.7676 3.93089 16.114L1.79289 7.114C1.67693 6.67736 1.7662 6.21168 2.03539 5.84886C2.30458 5.48605 2.72438 5.26561 3.17589 5.25H21.3239C21.7752 5.26599 22.1948 5.48652 22.4639 5.84922C22.733 6.21193 22.8224 6.67739 22.7069 7.114L22.4069 8.37" stroke="currentColor" stroke-width="1.5" stroke-linecap="round" stroke-linejoin="round"/>
<path d="M4.75 5.25L9.25 0.75" stroke="currentColor" stroke-width="1.5" stroke-linecap="round" stroke-linejoin="round"/>
<path d="M19.75 5.25L15.25 0.752001" stroke="currentColor" stroke-width="1.5" stroke-linecap="round" stroke-linejoin="round"/>
</svg>
