<svg width="24" height="25" viewBox="0 0 24 25" fill="none" xmlns="http://www.w3.org/2000/svg">
<path d="M8.25 18.75H2.25C1.42157 18.75 0.75 18.0784 0.75 17.25V6.75C0.75 5.92157 1.42157 5.25 2.25 5.25H17.25C18.0784 5.25 18.75 5.92157 18.75 6.75V8.25" stroke="currentColor" stroke-width="1.5" stroke-linecap="round" stroke-linejoin="round"/>
<path d="M18.266 5.647L15.445 1.418C15.1674 1.00159 14.7005 0.751038 14.2 0.75H5.30001C4.7985 0.750036 4.33018 1.00071 4.05201 1.418L1.23401 5.647" stroke="currentColor" stroke-width="1.5" stroke-linecap="round" stroke-linejoin="round"/>
<path d="M9.75 0.75V5.25" stroke="currentColor" stroke-width="1.5" stroke-linecap="round" stroke-linejoin="round"/>
<path d="M15 18.75H11.25V22.5" stroke="currentColor" stroke-width="1.5" stroke-linecap="round" stroke-linejoin="round"/>
<path d="M22.667 19.483C21.8503 21.8696 19.5323 23.4098 17.0157 23.2381C14.4991 23.0663 12.4118 21.2254 11.927 18.75" stroke="currentColor" stroke-width="1.5" stroke-linecap="round" stroke-linejoin="round"/>
<path d="M19.5 15.75H23.25V12" stroke="currentColor" stroke-width="1.5" stroke-linecap="round" stroke-linejoin="round"/>
<path d="M11.833 15.017C12.6497 12.6304 14.9677 11.0902 17.4843 11.2619C20.0009 11.4337 22.0882 13.2746 22.573 15.75" stroke="currentColor" stroke-width="1.5" stroke-linecap="round" stroke-linejoin="round"/>
</svg>
