<svg xmlns="http://www.w3.org/2000/svg" width="32" height="32" viewBox="0 0 32 32">
    <g fill="#0B1835" fill-rule="evenodd">
        <path d="M8.504 21.956c-3.964-1.177-6.426-3.148-6.426-5.143 0-3.375 6.604-6.225 14.422-6.225.263 0 .533.006.803.013l-.913 1.77a.79.79 0 0 0 1.402.724l1.476-2.86a.795.795 0 0 0 .057-.141v-.002c.01-.033.015-.066.02-.1.004-.016.008-.033.01-.05v-.006c0-.008.003-.014.003-.022.001-.02-.002-.04-.002-.059l-.001-.067-.002-.008c-.004-.032-.01-.061-.017-.092-.003-.016-.006-.033-.011-.05l-.004-.01a.882.882 0 0 0-.033-.083l-.016-.042-1.48-2.868a.79.79 0 0 0-1.402.723l.858 1.664c-.251-.006-.503-.013-.748-.013-8.972 0-16 3.428-16 7.803 0 2.764 2.824 5.251 7.554 6.655a.79.79 0 0 0 .981-.532.788.788 0 0 0-.531-.98z"/>
        <path fill-rule="nonzero" d="M31.576 15.113c0-2.763-2.824-5.251-7.554-6.656a.789.789 0 0 0-.449 1.513c3.963 1.177 6.425 3.148 6.425 5.143 0 3.374-6.605 6.225-14.422 6.225-.264 0-.534-.006-.803-.013l.913-1.77a.79.79 0 1 0-1.402-.723l-1.48 2.867c-.013.03-.02.053-.03.077-.008.02-.017.039-.022.06-.008.024-.011.048-.016.071-.005.026-.01.052-.013.077-.005.044-.002.06-.002.076l.001.078c.005.04.012.069.019.099.003.017.005.034.01.051.013.037.025.065.036.092.004.01.503.98 1.497 2.912a.788.788 0 0 0 1.063.339.79.79 0 0 0 .34-1.063l-.859-1.663c.25.006.502.012.748.012 8.972 0 16-3.428 16-7.804z"/>
    </g>
</svg>
