<?xml version="1.0" encoding="UTF-8"?>
<svg width="28px" height="28px" viewBox="0 0 28 28" version="1.1" xmlns="http://www.w3.org/2000/svg" xmlns:xlink="http://www.w3.org/1999/xlink">
    <!-- Generator: Sketch 47.1 (45422) - http://www.bohemiancoding.com/sketch -->
    <title>tumblr</title>
    <desc>Created with Sketch.</desc>
    <defs></defs>
    <g id="PDP" stroke="none" stroke-width="1" fill="none" fill-rule="evenodd">
        <g id="tumblr" fill="#000000">
            <path d="M22.2941176,25.7262353 C22.2941176,25.8283529 22.2504706,25.9247059 22.1738824,25.9938824 C22.08,26.0754118 19.8334118,28 14.6707059,28 C8.48270588,28 8.29411765,21.0971765 8.29411765,20.3107059 L8.29411765,11.5376471 L5.35494118,11.5294118 C5.15894118,11.5294118 5,11.3795294 5,11.1835294 L5,8.07882353 C5,7.93305882 5.08976471,7.80129412 5.22564706,7.74776471 C5.28164706,7.72717647 10.8141176,5.57858824 10.8141176,0.354941176 C10.8141176,0.158941176 10.9730588,0 11.1690588,0 L14.534,0 C14.73,0 14.8889412,0.158941176 14.8889412,0.354941176 L14.8823529,6.58823529 L20.2855294,6.58823529 C20.4815294,6.58823529 20.6412941,6.75788235 20.6412941,6.95388235 L20.6412941,11.1612941 C20.6412941,11.3572941 20.4823529,11.5294118 20.2855294,11.5294118 L14.8823529,11.5294118 C14.8823529,11.5294118 14.8823529,19.9730588 14.8823529,20.1781176 C14.8823529,20.3823529 15.0692941,22.8644706 17.7103529,22.8644706 C19.8968235,22.8644706 21.7349412,21.7387059 21.7522353,21.7263529 C21.8617647,21.6563529 21.9984706,21.6538824 22.1112941,21.7172941 C22.2241176,21.7798824 22.2941176,21.8984706 22.2941176,22.0277647 L22.2941176,25.7262353 Z" id="Path"></path>
        </g>
    </g>
</svg>