<?xml version="1.0" encoding="UTF-8"?>
<svg width="28px" height="28px" viewBox="0 0 28 28" version="1.1" xmlns="http://www.w3.org/2000/svg" xmlns:xlink="http://www.w3.org/1999/xlink">
    <!-- Generator: Sketch 47.1 (45422) - http://www.bohemiancoding.com/sketch -->
    <title>twitter</title>
    <desc>Created with Sketch.</desc>
    <defs></defs>
    <g id="PDP" stroke="none" stroke-width="1" fill="none" fill-rule="evenodd">
        <g id="twitter" fill-rule="nonzero" fill="#0E100D">
            <path d="M24.761995,9.30734969 C24.761995,9.06255262 24.761995,8.81885825 24.7454546,8.57626657 C25.852369,7.7756157 26.807876,6.78426317 27.567237,5.64862599 C26.5349863,6.10602354 25.4399608,6.40598471 24.3187138,6.5384964 C25.499412,5.83165266 26.3830847,4.71991002 26.8052786,3.41016634 C25.695044,4.06897403 24.480419,4.53326883 23.213819,4.78301474 C21.460634,2.9188016 18.6748396,2.46252887 16.4185494,3.67004812 C14.1622591,4.87756736 12.9966014,7.4485744 13.5752102,9.94139614 C9.02760384,9.71341458 4.79060775,7.56545678 1.9186797,4.03208321 C0.417503331,6.6163956 1.18427514,9.92249547 3.6697506,11.5821981 C2.76967061,11.5555214 1.88921514,11.3127153 1.10268948,10.8742714 C1.10268948,10.8974279 1.10268948,10.9216871 1.10268948,10.9459463 C1.10342622,13.6382651 3.00124674,15.9571574 5.6402567,16.490269 C4.80758235,16.7173569 3.93393359,16.7505526 3.08642786,16.5873057 C3.82737778,18.8912902 5.95074601,20.469637 8.37051584,20.5150856 C6.36773959,22.0890998 3.89366218,22.9435692 1.34638386,22.9410025 C0.896380216,22.9401386 0.446814261,22.9128922 0,22.8594034 C2.58650809,24.5192561 5.59605363,25.3996878 8.66934472,25.3955893 C19.0721173,25.4 24.761995,16.781379 24.761995,9.30734969 Z" id="Shape"></path>
        </g>
    </g>
</svg>